<mxfile host="www.draw.io" modified="2023-05-30T05:51:50.149Z" agent="Mozilla/5.0 (Windows NT 10.0; Win64; x64) AppleWebKit/537.36 (KHTML, like Gecko) Chrome/113.0.0.0 Safari/537.36 Edg/113.0.1774.57" etag="_le4-g83UacJST-MRNb3" version="21.3.5" type="device">
  <diagram name="Page-1" id="IaiVqEDs2wWKa40mZyiF">
    <mxGraphModel dx="1992" dy="1146" grid="1" gridSize="10" guides="1" tooltips="1" connect="1" arrows="1" fold="1" page="1" pageScale="1" pageWidth="850" pageHeight="1100" math="0" shadow="0">
      <root>
        <mxCell id="0" />
        <mxCell id="1" parent="0" />
        <mxCell id="MVBIBI5PwNMMdUUioOMz-1" value="&lt;font style=&quot;font-size: 21px;&quot;&gt;USER&lt;/font&gt;" style="rounded=0;whiteSpace=wrap;html=1;" vertex="1" parent="1">
          <mxGeometry x="368" y="240" width="120" height="60" as="geometry" />
        </mxCell>
        <mxCell id="MVBIBI5PwNMMdUUioOMz-2" value="&lt;font style=&quot;font-size: 21px;&quot;&gt;CONTACT&lt;/font&gt;" style="rounded=0;whiteSpace=wrap;html=1;" vertex="1" parent="1">
          <mxGeometry x="373" y="680" width="120" height="60" as="geometry" />
        </mxCell>
        <mxCell id="MVBIBI5PwNMMdUUioOMz-3" value="&lt;font style=&quot;font-size: 16px;&quot;&gt;&lt;u&gt;Id&lt;/u&gt;&lt;/font&gt;" style="ellipse;whiteSpace=wrap;html=1;" vertex="1" parent="1">
          <mxGeometry x="178" y="330" width="90" height="50" as="geometry" />
        </mxCell>
        <mxCell id="MVBIBI5PwNMMdUUioOMz-4" value="&lt;font style=&quot;font-size: 16px;&quot;&gt;Name&lt;/font&gt;" style="ellipse;whiteSpace=wrap;html=1;" vertex="1" parent="1">
          <mxGeometry x="188" y="250" width="80" height="50" as="geometry" />
        </mxCell>
        <mxCell id="MVBIBI5PwNMMdUUioOMz-5" value="&lt;font style=&quot;font-size: 16px;&quot;&gt;Email&lt;/font&gt;" style="ellipse;whiteSpace=wrap;html=1;" vertex="1" parent="1">
          <mxGeometry x="208" y="170" width="90" height="55" as="geometry" />
        </mxCell>
        <mxCell id="MVBIBI5PwNMMdUUioOMz-6" value="&lt;font style=&quot;font-size: 16px;&quot;&gt;Password&lt;/font&gt;" style="ellipse;whiteSpace=wrap;html=1;" vertex="1" parent="1">
          <mxGeometry x="548" y="155" width="100" height="50" as="geometry" />
        </mxCell>
        <mxCell id="MVBIBI5PwNMMdUUioOMz-7" value="&lt;font style=&quot;font-size: 16px;&quot;&gt;Image&lt;/font&gt;" style="ellipse;whiteSpace=wrap;html=1;" vertex="1" parent="1">
          <mxGeometry x="288" y="100" width="100" height="60" as="geometry" />
        </mxCell>
        <mxCell id="MVBIBI5PwNMMdUUioOMz-8" value="&lt;font style=&quot;font-size: 16px;&quot;&gt;About&lt;/font&gt;" style="ellipse;whiteSpace=wrap;html=1;" vertex="1" parent="1">
          <mxGeometry x="418" y="100" width="110" height="55" as="geometry" />
        </mxCell>
        <mxCell id="MVBIBI5PwNMMdUUioOMz-9" value="&lt;font style=&quot;font-size: 16px;&quot;&gt;Role&lt;/font&gt;" style="ellipse;whiteSpace=wrap;html=1;" vertex="1" parent="1">
          <mxGeometry x="588" y="245" width="80" height="50" as="geometry" />
        </mxCell>
        <mxCell id="MVBIBI5PwNMMdUUioOMz-10" value="&lt;font style=&quot;font-size: 16px;&quot;&gt;Enabled&lt;/font&gt;" style="ellipse;whiteSpace=wrap;html=1;" vertex="1" parent="1">
          <mxGeometry x="578" y="320" width="95" height="50" as="geometry" />
        </mxCell>
        <mxCell id="MVBIBI5PwNMMdUUioOMz-11" value="" style="endArrow=none;html=1;rounded=0;exitX=0.95;exitY=0.3;exitDx=0;exitDy=0;exitPerimeter=0;entryX=0;entryY=0.5;entryDx=0;entryDy=0;" edge="1" parent="1" source="MVBIBI5PwNMMdUUioOMz-4" target="MVBIBI5PwNMMdUUioOMz-1">
          <mxGeometry width="50" height="50" relative="1" as="geometry">
            <mxPoint x="568" y="240" as="sourcePoint" />
            <mxPoint x="348" y="250" as="targetPoint" />
          </mxGeometry>
        </mxCell>
        <mxCell id="MVBIBI5PwNMMdUUioOMz-12" value="" style="endArrow=none;html=1;rounded=0;exitX=0.25;exitY=0;exitDx=0;exitDy=0;entryX=0.648;entryY=0.963;entryDx=0;entryDy=0;entryPerimeter=0;" edge="1" parent="1" source="MVBIBI5PwNMMdUUioOMz-1" target="MVBIBI5PwNMMdUUioOMz-7">
          <mxGeometry width="50" height="50" relative="1" as="geometry">
            <mxPoint x="279" y="275" as="sourcePoint" />
            <mxPoint x="358" y="260" as="targetPoint" />
          </mxGeometry>
        </mxCell>
        <mxCell id="MVBIBI5PwNMMdUUioOMz-13" value="" style="endArrow=none;html=1;rounded=0;exitX=0;exitY=0;exitDx=0;exitDy=0;entryX=1;entryY=0.5;entryDx=0;entryDy=0;" edge="1" parent="1" source="MVBIBI5PwNMMdUUioOMz-1" target="MVBIBI5PwNMMdUUioOMz-5">
          <mxGeometry width="50" height="50" relative="1" as="geometry">
            <mxPoint x="388" y="230" as="sourcePoint" />
            <mxPoint x="363" y="168" as="targetPoint" />
          </mxGeometry>
        </mxCell>
        <mxCell id="MVBIBI5PwNMMdUUioOMz-14" value="" style="endArrow=none;html=1;rounded=0;exitX=1;exitY=0;exitDx=0;exitDy=0;entryX=0;entryY=1;entryDx=0;entryDy=0;" edge="1" parent="1" source="MVBIBI5PwNMMdUUioOMz-3" target="MVBIBI5PwNMMdUUioOMz-1">
          <mxGeometry width="50" height="50" relative="1" as="geometry">
            <mxPoint x="279" y="275" as="sourcePoint" />
            <mxPoint x="358" y="260" as="targetPoint" />
          </mxGeometry>
        </mxCell>
        <mxCell id="MVBIBI5PwNMMdUUioOMz-15" value="" style="endArrow=none;html=1;rounded=0;exitX=0.324;exitY=0.949;exitDx=0;exitDy=0;exitPerimeter=0;" edge="1" parent="1" source="MVBIBI5PwNMMdUUioOMz-8" target="MVBIBI5PwNMMdUUioOMz-1">
          <mxGeometry width="50" height="50" relative="1" as="geometry">
            <mxPoint x="279" y="275" as="sourcePoint" />
            <mxPoint x="358" y="260" as="targetPoint" />
          </mxGeometry>
        </mxCell>
        <mxCell id="MVBIBI5PwNMMdUUioOMz-16" value="" style="endArrow=none;html=1;rounded=0;exitX=0;exitY=0.5;exitDx=0;exitDy=0;entryX=1;entryY=0;entryDx=0;entryDy=0;" edge="1" parent="1" source="MVBIBI5PwNMMdUUioOMz-6" target="MVBIBI5PwNMMdUUioOMz-1">
          <mxGeometry width="50" height="50" relative="1" as="geometry">
            <mxPoint x="464" y="162" as="sourcePoint" />
            <mxPoint x="488" y="230" as="targetPoint" />
          </mxGeometry>
        </mxCell>
        <mxCell id="MVBIBI5PwNMMdUUioOMz-17" value="" style="endArrow=none;html=1;rounded=0;entryX=1;entryY=0.5;entryDx=0;entryDy=0;" edge="1" parent="1" source="MVBIBI5PwNMMdUUioOMz-9" target="MVBIBI5PwNMMdUUioOMz-1">
          <mxGeometry width="50" height="50" relative="1" as="geometry">
            <mxPoint x="538" y="205" as="sourcePoint" />
            <mxPoint x="478" y="230" as="targetPoint" />
          </mxGeometry>
        </mxCell>
        <mxCell id="MVBIBI5PwNMMdUUioOMz-18" value="" style="endArrow=none;html=1;rounded=0;entryX=1;entryY=1;entryDx=0;entryDy=0;" edge="1" parent="1" source="MVBIBI5PwNMMdUUioOMz-10" target="MVBIBI5PwNMMdUUioOMz-1">
          <mxGeometry width="50" height="50" relative="1" as="geometry">
            <mxPoint x="273" y="348" as="sourcePoint" />
            <mxPoint x="358" y="290" as="targetPoint" />
          </mxGeometry>
        </mxCell>
        <mxCell id="MVBIBI5PwNMMdUUioOMz-19" value="&lt;font style=&quot;font-size: 16px;&quot;&gt;&lt;u&gt;Cid&lt;/u&gt;&lt;/font&gt;" style="ellipse;whiteSpace=wrap;html=1;" vertex="1" parent="1">
          <mxGeometry x="188" y="640" width="95" height="50" as="geometry" />
        </mxCell>
        <mxCell id="MVBIBI5PwNMMdUUioOMz-20" value="&lt;font style=&quot;font-size: 16px;&quot;&gt;Name&lt;/font&gt;" style="ellipse;whiteSpace=wrap;html=1;" vertex="1" parent="1">
          <mxGeometry x="188" y="725" width="95" height="50" as="geometry" />
        </mxCell>
        <mxCell id="MVBIBI5PwNMMdUUioOMz-21" value="&lt;font style=&quot;font-size: 16px;&quot;&gt;NicName&lt;/font&gt;" style="ellipse;whiteSpace=wrap;html=1;" vertex="1" parent="1">
          <mxGeometry x="198" y="810" width="100" height="60" as="geometry" />
        </mxCell>
        <mxCell id="MVBIBI5PwNMMdUUioOMz-22" value="&lt;font style=&quot;font-size: 16px;&quot;&gt;Work&lt;/font&gt;" style="ellipse;whiteSpace=wrap;html=1;" vertex="1" parent="1">
          <mxGeometry x="463" y="860" width="100" height="60" as="geometry" />
        </mxCell>
        <mxCell id="MVBIBI5PwNMMdUUioOMz-24" value="&lt;font style=&quot;font-size: 16px;&quot;&gt;Email&lt;/font&gt;" style="ellipse;whiteSpace=wrap;html=1;" vertex="1" parent="1">
          <mxGeometry x="573" y="800" width="90" height="60" as="geometry" />
        </mxCell>
        <mxCell id="MVBIBI5PwNMMdUUioOMz-25" value="&lt;font style=&quot;font-size: 16px;&quot;&gt;Image&lt;/font&gt;" style="ellipse;whiteSpace=wrap;html=1;" vertex="1" parent="1">
          <mxGeometry x="604.5" y="725" width="87" height="55" as="geometry" />
        </mxCell>
        <mxCell id="MVBIBI5PwNMMdUUioOMz-26" value="&lt;font style=&quot;font-size: 16px;&quot;&gt;Description&lt;/font&gt;" style="ellipse;whiteSpace=wrap;html=1;" vertex="1" parent="1">
          <mxGeometry x="593" y="640" width="110" height="60" as="geometry" />
        </mxCell>
        <mxCell id="MVBIBI5PwNMMdUUioOMz-27" value="&lt;font style=&quot;font-size: 16px;&quot;&gt;PhoneNo&lt;/font&gt;" style="ellipse;whiteSpace=wrap;html=1;" vertex="1" parent="1">
          <mxGeometry x="318" y="860" width="110" height="60" as="geometry" />
        </mxCell>
        <mxCell id="MVBIBI5PwNMMdUUioOMz-29" value="" style="endArrow=none;html=1;rounded=0;exitX=1;exitY=0;exitDx=0;exitDy=0;entryX=0;entryY=0.5;entryDx=0;entryDy=0;" edge="1" parent="1" source="MVBIBI5PwNMMdUUioOMz-2" target="MVBIBI5PwNMMdUUioOMz-26">
          <mxGeometry width="50" height="50" relative="1" as="geometry">
            <mxPoint x="633" y="630" as="sourcePoint" />
            <mxPoint x="683" y="580" as="targetPoint" />
          </mxGeometry>
        </mxCell>
        <mxCell id="MVBIBI5PwNMMdUUioOMz-30" value="" style="endArrow=none;html=1;rounded=0;entryX=0;entryY=0.5;entryDx=0;entryDy=0;exitX=1;exitY=0.5;exitDx=0;exitDy=0;" edge="1" parent="1" source="MVBIBI5PwNMMdUUioOMz-2" target="MVBIBI5PwNMMdUUioOMz-25">
          <mxGeometry width="50" height="50" relative="1" as="geometry">
            <mxPoint x="493" y="730" as="sourcePoint" />
            <mxPoint x="623" y="670" as="targetPoint" />
          </mxGeometry>
        </mxCell>
        <mxCell id="MVBIBI5PwNMMdUUioOMz-31" value="" style="endArrow=none;html=1;rounded=0;entryX=0;entryY=0.5;entryDx=0;entryDy=0;exitX=1;exitY=1;exitDx=0;exitDy=0;" edge="1" parent="1" source="MVBIBI5PwNMMdUUioOMz-2" target="MVBIBI5PwNMMdUUioOMz-24">
          <mxGeometry width="50" height="50" relative="1" as="geometry">
            <mxPoint x="498" y="750" as="sourcePoint" />
            <mxPoint x="613" y="755" as="targetPoint" />
          </mxGeometry>
        </mxCell>
        <mxCell id="MVBIBI5PwNMMdUUioOMz-32" value="" style="endArrow=none;html=1;rounded=0;exitX=0.75;exitY=1;exitDx=0;exitDy=0;" edge="1" parent="1" source="MVBIBI5PwNMMdUUioOMz-2">
          <mxGeometry width="50" height="50" relative="1" as="geometry">
            <mxPoint x="498" y="780" as="sourcePoint" />
            <mxPoint x="503" y="860" as="targetPoint" />
          </mxGeometry>
        </mxCell>
        <mxCell id="MVBIBI5PwNMMdUUioOMz-33" value="" style="endArrow=none;html=1;rounded=0;entryX=0.5;entryY=0;entryDx=0;entryDy=0;exitX=0.25;exitY=1;exitDx=0;exitDy=0;" edge="1" parent="1" source="MVBIBI5PwNMMdUUioOMz-2" target="MVBIBI5PwNMMdUUioOMz-27">
          <mxGeometry width="50" height="50" relative="1" as="geometry">
            <mxPoint x="428" y="770" as="sourcePoint" />
            <mxPoint x="513" y="870" as="targetPoint" />
          </mxGeometry>
        </mxCell>
        <mxCell id="MVBIBI5PwNMMdUUioOMz-34" value="" style="endArrow=none;html=1;rounded=0;entryX=1;entryY=0;entryDx=0;entryDy=0;exitX=0;exitY=1;exitDx=0;exitDy=0;" edge="1" parent="1" source="MVBIBI5PwNMMdUUioOMz-2" target="MVBIBI5PwNMMdUUioOMz-21">
          <mxGeometry width="50" height="50" relative="1" as="geometry">
            <mxPoint x="408" y="780" as="sourcePoint" />
            <mxPoint x="383" y="870" as="targetPoint" />
          </mxGeometry>
        </mxCell>
        <mxCell id="MVBIBI5PwNMMdUUioOMz-35" value="" style="endArrow=none;html=1;rounded=0;entryX=1;entryY=0.5;entryDx=0;entryDy=0;exitX=0;exitY=0.5;exitDx=0;exitDy=0;" edge="1" parent="1" source="MVBIBI5PwNMMdUUioOMz-2" target="MVBIBI5PwNMMdUUioOMz-20">
          <mxGeometry width="50" height="50" relative="1" as="geometry">
            <mxPoint x="378" y="780" as="sourcePoint" />
            <mxPoint x="293" y="829" as="targetPoint" />
          </mxGeometry>
        </mxCell>
        <mxCell id="MVBIBI5PwNMMdUUioOMz-36" value="" style="endArrow=none;html=1;rounded=0;entryX=1;entryY=0.5;entryDx=0;entryDy=0;exitX=0;exitY=0;exitDx=0;exitDy=0;" edge="1" parent="1" source="MVBIBI5PwNMMdUUioOMz-2" target="MVBIBI5PwNMMdUUioOMz-19">
          <mxGeometry width="50" height="50" relative="1" as="geometry">
            <mxPoint x="378" y="750" as="sourcePoint" />
            <mxPoint x="293" y="760" as="targetPoint" />
          </mxGeometry>
        </mxCell>
        <mxCell id="MVBIBI5PwNMMdUUioOMz-38" value="Has" style="rhombus;whiteSpace=wrap;html=1;" vertex="1" parent="1">
          <mxGeometry x="393" y="450" width="80" height="80" as="geometry" />
        </mxCell>
        <mxCell id="MVBIBI5PwNMMdUUioOMz-39" value="" style="endArrow=none;html=1;rounded=0;exitX=0.5;exitY=0;exitDx=0;exitDy=0;entryX=0.5;entryY=1;entryDx=0;entryDy=0;" edge="1" parent="1" source="MVBIBI5PwNMMdUUioOMz-38" target="MVBIBI5PwNMMdUUioOMz-1">
          <mxGeometry width="50" height="50" relative="1" as="geometry">
            <mxPoint x="630" y="490" as="sourcePoint" />
            <mxPoint x="680" y="440" as="targetPoint" />
          </mxGeometry>
        </mxCell>
        <mxCell id="MVBIBI5PwNMMdUUioOMz-42" value="&lt;font style=&quot;font-size: 16px;&quot;&gt;1&lt;/font&gt;" style="edgeLabel;html=1;align=center;verticalAlign=middle;resizable=0;points=[];" vertex="1" connectable="0" parent="MVBIBI5PwNMMdUUioOMz-39">
          <mxGeometry x="-0.2416" y="-4" relative="1" as="geometry">
            <mxPoint as="offset" />
          </mxGeometry>
        </mxCell>
        <mxCell id="MVBIBI5PwNMMdUUioOMz-40" value="" style="endArrow=none;html=1;rounded=0;exitX=0.5;exitY=1;exitDx=0;exitDy=0;entryX=0.475;entryY=0;entryDx=0;entryDy=0;entryPerimeter=0;" edge="1" parent="1" source="MVBIBI5PwNMMdUUioOMz-38" target="MVBIBI5PwNMMdUUioOMz-2">
          <mxGeometry width="50" height="50" relative="1" as="geometry">
            <mxPoint x="435" y="460" as="sourcePoint" />
            <mxPoint x="425" y="670" as="targetPoint" />
          </mxGeometry>
        </mxCell>
        <mxCell id="MVBIBI5PwNMMdUUioOMz-43" value="&lt;font style=&quot;font-size: 16px;&quot;&gt;n&lt;/font&gt;" style="text;html=1;align=center;verticalAlign=middle;resizable=0;points=[];autosize=1;strokeColor=none;fillColor=none;" vertex="1" parent="1">
          <mxGeometry x="425" y="588" width="30" height="30" as="geometry" />
        </mxCell>
      </root>
    </mxGraphModel>
  </diagram>
</mxfile>
